<?xml version="1.0" standalone="no"?>
<svg xmlns:xlink="http://www.w3.org/1999/xlink" id="wave" style="transform:rotate(0deg); transition: 0.3s" viewBox="0 0 1440 490" version="1.1" xmlns="http://www.w3.org/2000/svg"><defs><linearGradient id="sw-gradient-0" x1="0" x2="0" y1="1" y2="0"><stop stop-color="rgba(243, 106, 62, 1)" offset="0%"/><stop stop-color="rgba(243, 106, 62, 0)" offset="100%"/></linearGradient></defs><path style="transform:translate(0, 0px); opacity:1" fill="url(#sw-gradient-0)" d="M0,98L240,155.2C480,212,960,327,1440,351.2C1920,376,2400,310,2880,285.8C3360,261,3840,278,4320,294C4800,310,5280,327,5760,302.2C6240,278,6720,212,7200,204.2C7680,196,8160,245,8640,261.3C9120,278,9600,261,10080,269.5C10560,278,11040,310,11520,334.8C12000,359,12480,376,12960,343C13440,310,13920,229,14400,204.2C14880,180,15360,212,15840,204.2C16320,196,16800,147,17280,130.7C17760,114,18240,131,18720,114.3C19200,98,19680,49,20160,81.7C20640,114,21120,229,21600,294C22080,359,22560,376,23040,351.2C23520,327,24000,261,24480,228.7C24960,196,25440,196,25920,204.2C26400,212,26880,229,27360,245C27840,261,28320,278,28800,277.7C29280,278,29760,261,30240,253.2C30720,245,31200,245,31680,236.8C32160,229,32640,212,33120,171.5C33600,131,34080,65,34320,32.7L34560,0L34560,490L34320,490C34080,490,33600,490,33120,490C32640,490,32160,490,31680,490C31200,490,30720,490,30240,490C29760,490,29280,490,28800,490C28320,490,27840,490,27360,490C26880,490,26400,490,25920,490C25440,490,24960,490,24480,490C24000,490,23520,490,23040,490C22560,490,22080,490,21600,490C21120,490,20640,490,20160,490C19680,490,19200,490,18720,490C18240,490,17760,490,17280,490C16800,490,16320,490,15840,490C15360,490,14880,490,14400,490C13920,490,13440,490,12960,490C12480,490,12000,490,11520,490C11040,490,10560,490,10080,490C9600,490,9120,490,8640,490C8160,490,7680,490,7200,490C6720,490,6240,490,5760,490C5280,490,4800,490,4320,490C3840,490,3360,490,2880,490C2400,490,1920,490,1440,490C960,490,480,490,240,490L0,490Z"/><defs><linearGradient id="sw-gradient-1" x1="0" x2="0" y1="1" y2="0"><stop stop-color="rgba(236, 48, 114, 1)" offset="0%"/><stop stop-color="rgba(236, 48, 114, 0.16)" offset="100%"/></linearGradient></defs><path style="transform:translate(0, 50px); opacity:0.9" fill="url(#sw-gradient-1)" d="M0,441L240,383.8C480,327,960,212,1440,187.8C1920,163,2400,229,2880,228.7C3360,229,3840,163,4320,147C4800,131,5280,163,5760,204.2C6240,245,6720,294,7200,326.7C7680,359,8160,376,8640,367.5C9120,359,9600,327,10080,334.8C10560,343,11040,392,11520,343C12000,294,12480,147,12960,122.5C13440,98,13920,196,14400,261.3C14880,327,15360,359,15840,310.3C16320,261,16800,131,17280,138.8C17760,147,18240,294,18720,318.5C19200,343,19680,245,20160,187.8C20640,131,21120,114,21600,114.3C22080,114,22560,131,23040,122.5C23520,114,24000,82,24480,81.7C24960,82,25440,114,25920,163.3C26400,212,26880,278,27360,285.8C27840,294,28320,245,28800,212.3C29280,180,29760,163,30240,155.2C30720,147,31200,147,31680,155.2C32160,163,32640,180,33120,163.3C33600,147,34080,98,34320,73.5L34560,49L34560,490L34320,490C34080,490,33600,490,33120,490C32640,490,32160,490,31680,490C31200,490,30720,490,30240,490C29760,490,29280,490,28800,490C28320,490,27840,490,27360,490C26880,490,26400,490,25920,490C25440,490,24960,490,24480,490C24000,490,23520,490,23040,490C22560,490,22080,490,21600,490C21120,490,20640,490,20160,490C19680,490,19200,490,18720,490C18240,490,17760,490,17280,490C16800,490,16320,490,15840,490C15360,490,14880,490,14400,490C13920,490,13440,490,12960,490C12480,490,12000,490,11520,490C11040,490,10560,490,10080,490C9600,490,9120,490,8640,490C8160,490,7680,490,7200,490C6720,490,6240,490,5760,490C5280,490,4800,490,4320,490C3840,490,3360,490,2880,490C2400,490,1920,490,1440,490C960,490,480,490,240,490L0,490Z"/><defs><linearGradient id="sw-gradient-2" x1="0" x2="0" y1="1" y2="0"><stop stop-color="rgba(243, 106, 62, 1)" offset="0%"/><stop stop-color="rgba(255, 179, 11, 1)" offset="100%"/></linearGradient></defs><path style="transform:translate(0, 100px); opacity:0.8" fill="url(#sw-gradient-2)" d="M0,98L240,130.7C480,163,960,229,1440,253.2C1920,278,2400,261,2880,212.3C3360,163,3840,82,4320,81.7C4800,82,5280,163,5760,163.3C6240,163,6720,82,7200,114.3C7680,147,8160,294,8640,359.3C9120,425,9600,408,10080,343C10560,278,11040,163,11520,122.5C12000,82,12480,114,12960,163.3C13440,212,13920,278,14400,318.5C14880,359,15360,376,15840,359.3C16320,343,16800,294,17280,269.5C17760,245,18240,245,18720,220.5C19200,196,19680,147,20160,171.5C20640,196,21120,294,21600,294C22080,294,22560,196,23040,179.7C23520,163,24000,229,24480,228.7C24960,229,25440,163,25920,187.8C26400,212,26880,327,27360,367.5C27840,408,28320,376,28800,375.7C29280,376,29760,408,30240,400.2C30720,392,31200,343,31680,326.7C32160,310,32640,327,33120,318.5C33600,310,34080,278,34320,261.3L34560,245L34560,490L34320,490C34080,490,33600,490,33120,490C32640,490,32160,490,31680,490C31200,490,30720,490,30240,490C29760,490,29280,490,28800,490C28320,490,27840,490,27360,490C26880,490,26400,490,25920,490C25440,490,24960,490,24480,490C24000,490,23520,490,23040,490C22560,490,22080,490,21600,490C21120,490,20640,490,20160,490C19680,490,19200,490,18720,490C18240,490,17760,490,17280,490C16800,490,16320,490,15840,490C15360,490,14880,490,14400,490C13920,490,13440,490,12960,490C12480,490,12000,490,11520,490C11040,490,10560,490,10080,490C9600,490,9120,490,8640,490C8160,490,7680,490,7200,490C6720,490,6240,490,5760,490C5280,490,4800,490,4320,490C3840,490,3360,490,2880,490C2400,490,1920,490,1440,490C960,490,480,490,240,490L0,490Z"/></svg>