<?xml version="1.0" standalone="no"?>
<svg xmlns:xlink="http://www.w3.org/1999/xlink" id="wave" style="transform:rotate(0deg); transition: 0.3s" viewBox="0 0 1440 490" version="1.1" xmlns="http://www.w3.org/2000/svg"><defs><linearGradient id="sw-gradient-0" x1="0" x2="0" y1="1" y2="0"><stop stop-color="rgba(243, 106, 62, 1)" offset="0%"/><stop stop-color="rgba(243, 106, 62, 0.28)" offset="100%"/></linearGradient></defs><path style="transform:translate(0, 0px); opacity:1" fill="url(#sw-gradient-0)" d="M0,294L26.7,318.5C53.3,343,107,392,160,375.7C213.3,359,267,278,320,220.5C373.3,163,427,131,480,171.5C533.3,212,587,327,640,375.7C693.3,425,747,408,800,359.3C853.3,310,907,229,960,163.3C1013.3,98,1067,49,1120,89.8C1173.3,131,1227,261,1280,302.2C1333.3,343,1387,294,1440,294C1493.3,294,1547,343,1600,310.3C1653.3,278,1707,163,1760,138.8C1813.3,114,1867,180,1920,204.2C1973.3,229,2027,212,2080,204.2C2133.3,196,2187,196,2240,171.5C2293.3,147,2347,98,2400,106.2C2453.3,114,2507,180,2560,245C2613.3,310,2667,376,2720,392C2773.3,408,2827,376,2880,359.3C2933.3,343,2987,343,3040,285.8C3093.3,229,3147,114,3200,130.7C3253.3,147,3307,294,3360,302.2C3413.3,310,3467,180,3520,106.2C3573.3,33,3627,16,3680,73.5C3733.3,131,3787,261,3813,326.7L3840,392L3840,490L3813.3,490C3786.7,490,3733,490,3680,490C3626.7,490,3573,490,3520,490C3466.7,490,3413,490,3360,490C3306.7,490,3253,490,3200,490C3146.7,490,3093,490,3040,490C2986.7,490,2933,490,2880,490C2826.7,490,2773,490,2720,490C2666.7,490,2613,490,2560,490C2506.7,490,2453,490,2400,490C2346.7,490,2293,490,2240,490C2186.7,490,2133,490,2080,490C2026.7,490,1973,490,1920,490C1866.7,490,1813,490,1760,490C1706.7,490,1653,490,1600,490C1546.7,490,1493,490,1440,490C1386.7,490,1333,490,1280,490C1226.7,490,1173,490,1120,490C1066.7,490,1013,490,960,490C906.7,490,853,490,800,490C746.7,490,693,490,640,490C586.7,490,533,490,480,490C426.7,490,373,490,320,490C266.7,490,213,490,160,490C106.7,490,53,490,27,490L0,490Z"/><defs><linearGradient id="sw-gradient-1" x1="0" x2="0" y1="1" y2="0"><stop stop-color="rgba(243, 84, 134, 1)" offset="0%"/><stop stop-color="rgba(243, 84, 134, 0.25)" offset="100%"/></linearGradient></defs><path style="transform:translate(0, 50px); opacity:0.9" fill="url(#sw-gradient-1)" d="M0,441L26.7,432.8C53.3,425,107,408,160,400.2C213.3,392,267,392,320,383.8C373.3,376,427,359,480,334.8C533.3,310,587,278,640,285.8C693.3,294,747,343,800,318.5C853.3,294,907,196,960,204.2C1013.3,212,1067,327,1120,351.2C1173.3,376,1227,310,1280,253.2C1333.3,196,1387,147,1440,130.7C1493.3,114,1547,131,1600,147C1653.3,163,1707,180,1760,155.2C1813.3,131,1867,65,1920,32.7C1973.3,0,2027,0,2080,73.5C2133.3,147,2187,294,2240,367.5C2293.3,441,2347,441,2400,392C2453.3,343,2507,245,2560,204.2C2613.3,163,2667,180,2720,187.8C2773.3,196,2827,196,2880,171.5C2933.3,147,2987,98,3040,98C3093.3,98,3147,147,3200,212.3C3253.3,278,3307,359,3360,383.8C3413.3,408,3467,376,3520,310.3C3573.3,245,3627,147,3680,122.5C3733.3,98,3787,147,3813,171.5L3840,196L3840,490L3813.3,490C3786.7,490,3733,490,3680,490C3626.7,490,3573,490,3520,490C3466.7,490,3413,490,3360,490C3306.7,490,3253,490,3200,490C3146.7,490,3093,490,3040,490C2986.7,490,2933,490,2880,490C2826.7,490,2773,490,2720,490C2666.7,490,2613,490,2560,490C2506.7,490,2453,490,2400,490C2346.7,490,2293,490,2240,490C2186.7,490,2133,490,2080,490C2026.7,490,1973,490,1920,490C1866.7,490,1813,490,1760,490C1706.7,490,1653,490,1600,490C1546.7,490,1493,490,1440,490C1386.7,490,1333,490,1280,490C1226.7,490,1173,490,1120,490C1066.7,490,1013,490,960,490C906.7,490,853,490,800,490C746.7,490,693,490,640,490C586.7,490,533,490,480,490C426.7,490,373,490,320,490C266.7,490,213,490,160,490C106.7,490,53,490,27,490L0,490Z"/></svg>